<svg id="Layer_1" data-name="Layer 1" xmlns="http://www.w3.org/2000/svg" viewBox="0 0 739.13 453.37"><defs><style>.cls-1{fill:#e2e0d7;}.cls-1,.cls-3{stroke:#4f4f4f;}.cls-1,.cls-2,.cls-3{stroke-miterlimit:10;}.cls-2,.cls-3{fill:#e2c752;}.cls-2{stroke:#e2c752;}</style></defs><rect class="cls-1" x="2.49" width="736.63" height="453.72"/><line class="cls-2" x1="379.57" y1="0.44" x2="737.19" y2="437.24"/><line class="cls-2" x1="158.89" y1="0.44" x2="523.33" y2="446.96"/><line class="cls-2" x1="3.7" y1="263.19" x2="738.07" y2="174.63"/><line class="cls-2" x1="54.13" y1="453.32" x2="739.15" y2="82.84"/><line class="cls-2" x1="739.35" y1="199.62" x2="1.94" y2="292.4"/><line class="cls-2" x1="1.93" y1="68.48" x2="739.35" y2="337.87"/><line class="cls-2" x1="708.25" y1="0.08" x2="3.01" y2="419.12"/><line class="cls-2" x1="618.62" y1="0.44" x2="257.17" y2="453.32"/><line class="cls-2" x1="336.37" y1="0.08" x2="528.62" y2="453.32"/><line class="cls-2" x1="341.05" y1="0.08" x2="629.78" y2="453.32"/><line class="cls-2" x1="519.97" y1="0.08" x2="427.82" y2="452.96"/><line class="cls-2" x1="405.49" y1="0.08" x2="553.1" y2="452.6"/><line class="cls-2" x1="2.29" y1="144.08" x2="741.51" y2="162.89"/><line class="cls-3" x1="1.94" y1="343.52" x2="738.07" y2="62.32"/><line class="cls-3" x1="651.67" y1="-1.4" x2="321.25" y2="453.68"/><line class="cls-3" x1="78.61" y1="0.08" x2="538.28" y2="455.42"/><line class="cls-3" x1="2.66" y1="175.03" x2="736.99" y2="276.15"/><line class="cls-3" x1="485.42" y1="-0.64" x2="471.38" y2="453.32"/><line class="cls-2" x1="279.13" y1="-0.28" x2="468.86" y2="453.32"/><line class="cls-2" x1="1.93" y1="199.52" x2="736.99" y2="349.58"/><line class="cls-2" x1="445.08" y1="99.42" x2="508.09" y2="350"/><line class="cls-2" x1="510.98" y1="98" x2="536.89" y2="215.36"/><line class="cls-2" x1="391.45" y1="202.4" x2="536.9" y2="333.68"/><line class="cls-2" x1="390.73" y1="330.56" x2="536.17" y2="288.8"/><line class="cls-2" x1="392.89" y1="118.16" x2="536.66" y2="280.88"/><line class="cls-2" x1="392.17" y1="161.36" x2="536.89" y2="128.96"/><line class="cls-3" x1="738.49" y1="293.12" x2="163.93" y2="454.4"/><line class="cls-3" x1="473.53" y1="-0.64" x2="412.33" y2="455.12"/><line class="cls-3" x1="536.17" y1="283.04" x2="391.45" y2="244.88"/></svg>