<svg id="Layer_1" data-name="Layer 1" xmlns="http://www.w3.org/2000/svg" viewBox="0 0 144 252"><defs><style>.cls-1{fill:#e2c752;}.cls-2{fill:none;stroke:#231f20;stroke-miterlimit:10;stroke-width:0.25px;}</style></defs><rect class="cls-1" x="0.02" y="0.03" width="144.27" height="251.97"/><line class="cls-2" x1="32.1" x2="31.79" y2="94.5"/><line class="cls-2" x1="63.54" x2="63.54" y2="94.5"/><line class="cls-2" x1="38.82" x2="38.79" y2="101.25"/><line class="cls-2" x1="37.67" y1="1.13" x2="37.67" y2="100.13"/><line class="cls-2" x1="36.54" x2="36.54" y2="99"/><line class="cls-2" x1="34.38" x2="34.29" y2="96.75"/><line class="cls-2" x1="35.34" x2="35.42" y2="97.88"/><line class="cls-2" x1="33.18" x2="33.17" y2="95.63"/><line class="cls-2" x1="44.34" x2="44.42" y2="105.75"/><line class="cls-2" x1="43.38" x2="43.29" y2="105"/><line class="cls-2" x1="42.06" x2="42.17" y2="104.63"/><line class="cls-2" x1="40.98" x2="41.04" y2="103.5"/><line class="cls-2" x1="39.9" x2="39.92" y2="102.38"/><line class="cls-2" x1="46.62" x2="46.67" y2="106.88"/><line class="cls-2" x1="45.54" x2="45.54" y2="106.13"/><line class="cls-2" x1="47.82" x2="47.79" y2="107.25"/><line class="cls-2" x1="49.98" x2="50.04" y2="107.25"/><line class="cls-2" x1="51.06" x2="51.17" y2="106.88"/><line class="cls-2" x1="53.34" x2="53.42" y2="105"/><line class="cls-2" x1="54.54" x2="54.54" y2="104.63"/><line class="cls-2" x1="52.26" x2="52.29" y2="106.13"/><line class="cls-2" x1="48.9" x2="48.92" y2="108"/><line class="cls-2" x1="60.18" x2="60.17" y2="99"/><line class="cls-2" x1="59.1" x2="59.04" y2="100.12"/><line class="cls-2" x1="58.02" x2="57.92" y2="101.25"/><line class="cls-2" x1="56.7" x2="56.79" y2="102.38"/><line class="cls-2" x1="55.62" x2="55.67" y2="103.5"/><line class="cls-2" x1="62.34" x2="62.42" y2="95.63"/><line class="cls-2" x1="61.26" x2="61.29" y2="96.75"/></svg>